<?xml version="1.0" encoding="UTF-8"?>
<svg width="40px" height="32px" viewBox="0 0 40 32" version="1.1" xmlns="http://www.w3.org/2000/svg" xmlns:xlink="http://www.w3.org/1999/xlink">
    <title>jrs-icon-D-F</title>
    <g id="jrs-icon-D-F" stroke="none" stroke-width="1" fill="none" fill-rule="evenodd">
        <path d="M29,0 C30.1045695,-2.02906125e-16 31,0.8954305 31,2 L31,9.5 C31,9.77614237 30.7761424,10 30.5,10 L27.5,10 C27.2238576,10 27,9.77614237 27,9.5 L27,4.5 C27,4.25454011 26.8231248,4.05039163 26.5898756,4.00805567 L26.5,4 L8.5,4 C8.25454011,4 8.05039163,4.17687516 8.00805567,4.41012437 L8,4.5 L8,27.5 C8,27.7454599 8.17687516,27.9496084 8.41012437,27.9919443 L8.5,28 L26.5,28 C26.7454599,28 26.9496084,27.8231248 26.9919443,27.5898756 L27,27.5 L27,22.5 C27,22.2238576 27.2238576,22 27.5,22 L30.5,22 C30.7761424,22 31,22.2238576 31,22.5 L31,30 C31,31.1045695 30.1045695,32 29,32 L6,32 C4.8954305,32 4,31.1045695 4,30 L4,2 C4,0.8954305 4.8954305,2.02906125e-16 6,0 L29,0 Z M22.083107,9.21036651 C22.6688934,9.79615295 22.6688934,10.7459004 22.083107,11.3316869 L18.9845925,14.4290267 L33.5,14.43 C34.3284271,14.43 35,15.1015729 35,15.93 C35,16.7584271 34.3284271,17.43 33.5,17.43 L18.9935925,17.4290267 L22.0888348,20.5246212 C22.6746212,21.1104076 22.6746212,22.0601551 22.0888348,22.6459415 C21.5030483,23.231728 20.5533009,23.231728 19.9675144,22.6459415 L14.3559031,17.037213 C14.3386283,17.0214651 14.3216324,17.0052412 14.3049324,16.9885411 C13.7191459,16.4027547 13.7191459,15.4530072 14.3049324,14.8672208 L19.9617866,9.21036651 C20.547573,8.62458008 21.4973205,8.62458008 22.083107,9.21036651 Z" id="exit" fill="#666666"></path>
    </g>
</svg>