<?xml version="1.0" encoding="UTF-8"?>
<svg width="40px" height="32px" viewBox="0 0 40 32" version="1.1" xmlns="http://www.w3.org/2000/svg" xmlns:xlink="http://www.w3.org/1999/xlink">
    <title>jrs-icon-K-N</title>
    <g id="jrs-icon-K-N" stroke="none" stroke-width="1" fill="none" fill-rule="evenodd">
        <path d="M32.2391304,26.0909091 L8.76086957,26.0909091 C7.78828261,26.0909091 7,25.3583636 7,24.4545455 C7,23.5982967 7.7074891,22.8957663 8.60892288,22.8241876 L8.76086957,22.8181818 C9.73345652,22.8181818 10.5217391,22.0856364 10.5217391,21.1818182 L10.5217391,10.2727273 C10.5217391,6.05581818 14.2007826,2.63636364 18.7391304,2.63636364 C18.7391304,1.73254545 19.527413,1 20.5,1 C21.472587,1 22.2608696,1.73254545 22.2608696,2.63636364 C26.7992174,2.63636364 30.4782609,6.05581818 30.4782609,10.2727273 L30.4782609,21.1818182 C30.4782609,22.038067 31.18575,22.7405973 32.0871837,22.812176 L32.2391304,22.8181818 C33.2117174,22.8181818 34,23.5507273 34,24.4545455 C34,25.3583636 33.2117174,26.0909091 32.2391304,26.0909091 Z M20.5,31 C18.5548261,31 16.9782609,29.5354545 16.9782609,27.7272727 L24.0217391,27.7272727 C24.0217391,29.5354545 22.4451739,31 20.5,31 Z" id="Shape" fill="#686868"></path>
    </g>
</svg>