<?xml version="1.0" encoding="UTF-8"?>
<svg width="40px" height="32px" viewBox="0 0 40 32" version="1.1" xmlns="http://www.w3.org/2000/svg" xmlns:xlink="http://www.w3.org/1999/xlink">
    <title>jrs-icon-K-N</title>
    <g id="jrs-icon-K-N" stroke="none" stroke-width="1" fill="none" fill-rule="evenodd">
        <g id="Group" transform="translate(7.000000, 1.000000)" fill="#686868">
            <path d="M1.76086957,25.0909091 C0.788282609,25.0909091 0,24.3583636 0,23.4545455 C0,22.5507273 0.788282609,21.8181818 1.76086957,21.8181818 C2.73345652,21.8181818 3.52173913,21.0856364 3.52173913,20.1818182 L3.52173913,9.27272727 C3.52173913,5.05581818 7.20078261,1.63636364 11.7391304,1.63636364 C11.7391304,0.732545455 12.527413,0 13.5,0 C14.472587,0 15.2608696,0.732545455 15.2608696,1.63636364 C15.6754779,1.63636364 16.0829144,1.66490254 16.4810291,1.71998115 C16.2024073,2.07968222 13.8457528,4.51942267 14,8.54385004 C14.0968002,11.069441 15.3214044,12.9465768 16,13.7525397 C16.4395867,14.2746337 18.2310818,16.1884649 20.7420354,16.7488566 C21.3028513,16.8740188 22.0358188,16.9906579 22.5858296,17 C23.1213978,17.0090968 23.4782609,16.9236051 23.4782609,17 C23.4782609,17.1548499 23.4782609,20.1818182 23.4782609,20.1818182 C23.4782609,21.0856364 24.2665435,21.8181818 25.2391304,21.8181818 C26.2117174,21.8181818 27,22.5507273 27,23.4545455 C27,24.3583636 26.2117174,25.0909091 25.2391304,25.0909091 L1.76086957,25.0909091 Z M13.5,30 C11.5548261,30 9.97826087,28.5354545 9.97826087,26.7272727 L17.0217391,26.7272727 C17.0217391,28.5354545 15.4451739,30 13.5,30" id="Combined-Shape"></path>
            <path d="M23.1788219,0.4 C25.1704067,0.442075736 26.8814867,1.1713885 28.3120617,2.58793829 C29.7706872,4.07461431 30.5,5.84880785 30.5,7.91051893 C30.5,9.98625526 29.7706872,11.7534362 28.3120617,13.2120617 C26.8394109,14.6706872 25.07223,15.4 23.0105189,15.4 C20.9347826,15.4 19.1676017,14.6706872 17.7089762,13.2120617 C17.6528752,13.169986 17.6037868,13.113885 17.5617111,13.0437588 C16.187237,11.6131837 15.5,9.90210379 15.5,7.91051893 C15.5,5.84880785 16.2363254,4.07461431 17.7089762,2.58793829 C19.0908319,1.20608253 20.7496183,0.478790021 22.6853353,0.406060771 L23.0105189,0.4 L23.1788219,0.4 Z M24.0714286,2.54285714 L21.9285714,2.54285714 L21.9285714,6.82857143 L17.6428571,6.82857143 L17.6428571,8.97142857 L21.9285714,8.97142857 L21.9285714,13.2571429 L24.0714286,13.2571429 L24.0714286,8.97142857 L28.3571429,8.97142857 L28.3571429,6.82857143 L24.0714286,6.82857143 L24.0714286,2.54285714 Z" id="Shape" fill-rule="nonzero"></path>
        </g>
    </g>
</svg>