<?xml version="1.0" encoding="UTF-8"?>
<svg width="40px" height="32px" viewBox="0 0 40 32" version="1.1" xmlns="http://www.w3.org/2000/svg" xmlns:xlink="http://www.w3.org/1999/xlink">
    <title>jrs-icon-O-S</title>
    <g id="jrs-icon-O-S" stroke="none" stroke-width="1" fill="none" fill-rule="evenodd">
        <path d="M10.1079241,3.82502325 L20,13.718 L29.8920759,3.82502325 C30.2826002,3.43449895 30.9157651,3.43449895 31.3062894,3.82502325 L32.1749768,4.69371056 C32.565501,5.08423485 32.565501,5.71739983 32.1749768,6.10792413 L22.282,16 L32.1749768,25.8920759 C32.565501,26.2826002 32.565501,26.9157651 32.1749768,27.3062894 L31.3062894,28.1749768 C30.9157651,28.565501 30.2826002,28.565501 29.8920759,28.1749768 L20,18.282 L10.1079241,28.1749768 C9.71739983,28.565501 9.08423485,28.565501 8.69371056,28.1749768 L7.82502325,27.3062894 C7.43449895,26.9157651 7.43449895,26.2826002 7.82502325,25.8920759 L17.718,16 L7.82502325,6.10792413 C7.43449895,5.71739983 7.43449895,5.08423485 7.82502325,4.69371056 L8.69371056,3.82502325 C9.08423485,3.43449895 9.71739983,3.43449895 10.1079241,3.82502325 Z" id="searchClear" fill="#686868"></path>
    </g>
</svg>