<?xml version="1.0" encoding="UTF-8"?>
<svg width="40px" height="32px" viewBox="0 0 40 32" version="1.1" xmlns="http://www.w3.org/2000/svg" xmlns:xlink="http://www.w3.org/1999/xlink">
    <title>jrs-icon-O-S</title>
    <g id="jrs-icon-O-S" stroke="none" stroke-width="1" fill="none" fill-rule="evenodd">
        <path d="M8.22182541,4.22182541 C12.5175926,-0.0739418023 19.4824074,-0.0739418023 23.7781746,4.22182541 C27.6561742,8.09982505 28.0333135,14.1529805 24.9095924,18.4540522 C24.951821,18.4833043 24.9921359,18.5176193 25.0301515,18.5556349 L34.2225397,27.7480231 C34.613064,28.1385474 34.613064,28.7717123 34.2225397,29.1622366 L33.1618795,30.2228968 C32.7713552,30.6134211 32.1381902,30.6134211 31.7476659,30.2228968 L22.5552778,21.0305087 C22.5172621,20.992493 22.4829471,20.9521781 22.4523328,20.9100115 C18.1529805,24.0333135 12.0998251,23.6561742 8.22182541,19.7781746 C3.9260582,15.4824074 3.9260582,8.51759262 8.22182541,4.22182541 Z M10.6884841,6.70714286 C9.2292566,8.17857143 8.49964287,9.94285714 8.49964287,12 C8.49964287,14.0857143 9.2292566,15.85 10.6884841,17.2928571 C12.1477115,18.7642857 13.9216743,19.5 16.0103725,19.5 C18.0704583,19.5 19.830115,18.7642857 21.2893424,17.2928571 L21.2893424,17.2928571 L21.3108017,17.2928571 C22.7700291,15.8357143 23.4996429,14.0714286 23.4996429,12 C23.4996429,9.94285714 22.7700291,8.17857143 21.3108017,6.70714286 L21.3108017,6.70714286 L21.2893424,6.70714286 C19.830115,5.23571429 18.0704583,4.5 16.0103725,4.5 C13.9359805,4.5 12.1620177,5.23571429 10.6884841,6.70714286 Z" id="search" fill="#686868"></path>
    </g>
</svg>