<?xml version="1.0" encoding="UTF-8"?>
<svg width="40px" height="32px" viewBox="0 0 40 32" version="1.1" xmlns="http://www.w3.org/2000/svg" xmlns:xlink="http://www.w3.org/1999/xlink">
    <title>jrs-icon-T-Z</title>
    <g id="jrs-icon-T-Z" stroke="none" stroke-width="1" fill="none" fill-rule="evenodd">
        <path d="M23.7781746,4.22182541 C27.6561742,8.09982505 28.0333135,14.1529805 24.9095924,18.4540522 C24.951821,18.4833043 24.9921359,18.5176193 25.0301515,18.5556349 L34.2225397,27.7480231 C34.613064,28.1385474 34.613064,28.7717123 34.2225397,29.1622366 L33.1618795,30.2228968 C32.7713552,30.6134211 32.1381902,30.6134211 31.7476659,30.2228968 L22.5552778,21.0305087 C22.5172621,20.992493 22.4829471,20.9521781 22.4523328,20.9100115 C18.1529805,24.0333135 12.0998251,23.6561742 8.22182541,19.7781746 C3.9260582,15.4824074 3.9260582,8.51759262 8.22182541,4.22182541 C12.5175926,-0.0739418023 19.4824074,-0.0739418023 23.7781746,4.22182541 Z M16.0103725,4.5 C13.9359805,4.5 12.1620177,5.23571429 10.6884841,6.70714286 C9.2292566,8.17857143 8.49964287,9.94285714 8.49964287,12 C8.49964287,14.0857143 9.2292566,15.85 10.6884841,17.2928571 C12.1477115,18.7642857 13.9216743,19.5 16.0103725,19.5 C17.9620327,19.5 19.6440557,18.8396913 21.0564415,17.519074 L21.2893424,17.2928571 L21.3108017,17.2928571 C22.7700291,15.8357143 23.4996429,14.0714286 23.4996429,12 C23.4996429,10.0511278 22.8448095,8.36509695 21.5351427,6.9419074 L21.3108017,6.70714286 L21.2893424,6.70714286 C19.830115,5.23571429 18.0704583,4.5 16.0103725,4.5 Z M16.4968542,7.49644661 C16.7729966,7.49644661 16.9968542,7.72030423 16.9968542,7.99644661 L16.996,10.996 L19.9968542,10.9964466 C20.2729966,10.9964466 20.4968542,11.2203042 20.4968542,11.4964466 L20.4968542,12.4964466 C20.4968542,12.772589 20.2729966,12.9964466 19.9968542,12.9964466 L16.996,12.996 L16.9968542,15.9964466 C16.9968542,16.272589 16.7729966,16.4964466 16.4968542,16.4964466 L15.4968542,16.4964466 C15.2207119,16.4964466 14.9968542,16.272589 14.9968542,15.9964466 L14.996,12.996 L11.9968542,12.9964466 C11.7207119,12.9964466 11.4968542,12.772589 11.4968542,12.4964466 L11.4968542,11.4964466 C11.4968542,11.2203042 11.7207119,10.9964466 11.9968542,10.9964466 L14.996,10.996 L14.9968542,7.99644661 C14.9968542,7.72030423 15.2207119,7.49644661 15.4968542,7.49644661 L16.4968542,7.49644661 Z" id="zoomIn" fill="#686868"></path>
    </g>
</svg>